<svg preserveAspectRatio="none" width="100%" height="100%" overflow="visible" style="display: block;" viewBox="0 0 23.9441 27.4948" fill="none" xmlns="http://www.w3.org/2000/svg">
<path id="Vector" d="M8.03054 0.0127277C8.26873 -0.0165365 8.49454 0.00100479 8.71352 0.103873C8.98454 0.229603 9.19431 0.45818 9.29646 0.738991C9.43265 1.10894 9.37448 1.52253 9.14155 1.84052C9.03765 1.9799 8.90458 2.11322 8.83794 2.27252C8.9847 3.08095 9.20301 3.8593 9.40428 4.65605L10.2301 7.95828L11.442 12.8C11.6427 13.601 11.8469 14.4048 12.0456 15.2066C12.0705 15.2873 12.1038 15.3899 12.1652 15.4495C12.2966 15.577 12.3911 15.4753 12.4878 15.3844C12.5786 15.1403 12.6476 13.8941 12.6768 13.5558L12.8493 11.5517C12.8893 11.074 12.9514 10.5528 12.9179 10.0783C12.57 9.78146 12.3328 9.77612 12.0737 9.29885C11.877 8.936 11.8343 8.50923 11.9554 8.11459C12.0668 7.7473 12.3388 7.41376 12.6776 7.23385C13.0392 7.04351 13.4619 7.00675 13.8507 7.13189C14.2267 7.25234 14.5388 7.5183 14.7176 7.87044C14.973 8.36865 14.936 9.05044 14.5846 9.49518C14.3651 9.773 14.0786 9.9148 13.7716 10.0705C13.6366 10.432 13.5856 11.4281 13.5527 11.8518L13.3679 14.2499C13.3391 14.6243 13.2762 14.9896 13.2809 15.3654C13.2835 15.576 13.5125 15.8013 13.6325 15.5817C13.8873 15.1157 14.0401 14.577 14.2216 14.0751L15.0804 11.7169L16.3054 8.37057C16.4849 7.87985 16.7811 7.13354 16.9117 6.61489C16.9515 6.45702 16.489 6.11537 16.3921 5.95909C16.3022 5.81414 16.2371 5.67002 16.1917 5.49024C16.0918 5.08193 16.1584 4.65062 16.3768 4.29145C16.5861 3.94467 16.9262 3.6968 17.3202 3.60368C17.7312 3.51083 18.1624 3.58541 18.5183 3.81093C18.8574 4.02906 19.0961 4.37297 19.1817 4.76705C19.2769 5.19197 19.1934 5.63734 18.9508 5.99887C18.6487 6.45652 18.2368 6.59025 17.7293 6.6944C17.5559 7.05772 17.3831 7.55535 17.2445 7.93561L16.6036 9.69388L14.5347 15.3557C14.4603 15.5585 14.2594 16.0193 14.3439 16.202C14.4028 16.2553 14.3692 16.2394 14.448 16.2509C14.7513 16.0889 15.16 15.7158 15.4437 15.4874L17.1963 14.0843L20.1883 11.6872C20.5274 11.4149 21.4528 10.7018 21.6961 10.4197C21.671 10.1295 21.6697 9.86092 21.793 9.59071C21.919 9.31922 22.1487 9.10962 22.4307 9.00874C23.0093 8.79658 23.679 9.09493 23.8805 9.68199C23.9819 9.98443 23.9614 10.3145 23.8232 10.602C23.5071 11.2451 22.8259 11.3824 22.2123 11.0757C21.8464 11.2633 21.4624 11.6066 21.1387 11.8703L20.0514 12.7412L15.0551 16.7388C14.955 16.8176 14.7877 16.9434 14.7721 17.0738C14.9196 17.3758 15.7415 17.3221 16.0474 17.3209C16.2903 17.3223 16.5329 17.3033 16.7727 17.2642C17.5273 17.1421 18.2859 16.9417 19.0293 16.7616C19.2855 16.6995 19.6501 16.6413 19.888 16.5631C19.9479 16.5435 20.0043 16.5152 20.0484 16.4693C20.2374 16.2721 20.1068 15.7006 20.5784 15.2336C20.863 14.9518 21.2539 14.7816 21.6561 14.7865C22.0676 14.7914 22.4605 14.9585 22.7492 15.2516C23.0374 15.5475 23.1738 15.9323 23.1676 16.3429C23.1594 16.7608 22.9825 17.1576 22.6769 17.4427C22.3971 17.7104 22.0213 17.854 21.6343 17.841C21.0984 17.8235 20.7577 17.5647 20.4074 17.1945C19.5199 17.3762 18.6189 17.642 17.7282 17.8241C17.4443 17.8821 17.0804 17.9785 16.8006 18.0135C16.319 18.0738 15.7903 18.0428 15.3055 18.0411C15.189 18.0407 14.9375 18.0421 14.8629 18.1281C14.6495 18.3745 14.6493 18.6248 14.4291 18.9228C14.1366 19.3195 13.9229 19.4164 13.5731 19.7197C13.2706 19.982 13.3287 20.4948 13.3328 20.885L13.332 24.8001C13.3331 25.4319 13.3452 26.0801 13.3279 26.7115C13.3248 26.8257 13.2848 26.9823 13.2334 27.0852C13.1469 27.2609 12.9931 27.3943 12.807 27.4549C12.4045 27.5814 11.8878 27.4049 11.7833 26.962C11.6786 26.5181 11.7322 26.0046 11.7336 25.5461L11.7342 22.4164C11.735 21.6981 11.7949 20.6551 11.6712 19.9455C11.6284 19.7 11.1729 19.4259 10.9445 19.3202C10.6057 19.3928 10.2357 19.5235 9.90369 19.6316L8.44937 20.1066L6.6436 20.6947C6.31512 20.8 5.57962 20.9964 5.32142 21.1753C5.26574 21.2858 5.2037 21.445 5.16086 21.5625C4.93405 22.1841 4.23389 22.486 3.61834 22.212C3.34383 22.088 3.13077 21.8588 3.02735 21.5759C2.91763 21.2726 2.93329 20.938 3.07083 20.6465C3.20051 20.3746 3.43277 20.1656 3.71649 20.0653C4.32808 19.8522 4.63883 20.1637 5.10523 20.391C5.66317 20.2654 6.20237 20.0707 6.74577 19.8912L8.58149 19.2931C9.03261 19.1445 10.1748 18.8218 10.5119 18.6129C10.4475 18.2566 10.3495 18.1351 9.96558 18.1333C9.20359 18.1299 8.39771 18.2154 7.64273 18.0859C7.0259 17.98 6.39 17.7714 5.79084 17.5911L3.52626 16.9126C3.3245 16.8516 2.44002 16.5636 2.28902 16.5434C1.83573 16.4827 1.594 17.0793 0.889252 16.8977C0.584492 16.8162 0.323411 16.6192 0.161322 16.3485C-0.166942 15.7879 0.0206617 15.0923 0.588773 14.7748C0.866525 14.6228 1.19304 14.5866 1.4973 14.6741C2.28898 14.9022 2.20774 15.7193 2.49799 15.8102C3.96656 16.2705 5.47127 16.7464 6.95087 17.1718C7.22896 17.252 7.51208 17.3137 7.79833 17.3565C8.35102 17.4357 9.74573 17.5278 10.2565 17.2676C10.4479 17.17 10.562 16.7706 10.6058 16.5687C10.474 16.3688 10.1216 16.1401 9.91839 15.985L8.81746 15.1432C7.97352 14.4974 7.09829 13.7999 6.24179 13.1791C5.83772 13.4409 5.35095 13.4937 4.95695 13.1766C4.72604 12.9886 4.57932 12.7164 4.54907 12.4202C4.52481 12.1534 4.60899 11.8881 4.78256 11.6841C4.96759 11.4641 5.23412 11.3287 5.52094 11.3091C6.28666 11.258 6.60442 11.8525 6.64457 12.5247C6.97653 12.8532 7.48767 13.1949 7.86314 13.4933C8.09477 13.6774 8.78883 14.2634 9.03177 14.3396C9.11963 14.3246 9.10683 14.3414 9.15074 14.2886C9.17025 14.1577 9.09374 14.0516 9.02736 13.9427C8.84523 13.6439 8.6589 13.3479 8.47795 13.0483C8.17064 12.5336 7.85827 12.0219 7.54093 11.5133C6.7944 10.3379 6.33919 9.94485 5.13228 9.16711C4.7911 9.41753 4.52637 9.58606 4.08106 9.58859C3.67547 9.59153 3.28566 9.4315 2.99911 9.14437C2.70278 8.84401 2.5408 8.43634 2.55014 8.01447C2.55737 7.60698 2.72579 7.21897 3.0185 6.93546C3.30225 6.66074 3.72364 6.495 4.1179 6.50322C4.51765 6.51174 4.89717 6.68064 5.17116 6.97192C5.67427 7.49924 5.60014 7.90105 5.58505 8.52704C5.74121 8.72845 6.18676 9.03712 6.41141 9.184C7.58527 9.95155 8.19726 11.191 8.91846 12.3705L10.3143 14.6521C10.5299 15.008 10.8114 15.5516 11.0835 15.876C11.1219 15.9217 11.1981 15.9279 11.2584 15.9186C11.341 15.8757 11.3751 15.8082 11.4292 15.7297C11.3049 15.0542 11.0222 14.078 10.8447 13.386L9.85199 9.43756L8.68043 4.75632C8.5042 4.05554 8.32836 3.35309 8.15689 2.65008C7.97415 2.04174 7.30616 2.19792 7.14448 1.50276C6.96936 0.749848 7.25104 0.21496 8.03054 0.0127277ZM17.5191 4.34824C17.1022 4.4361 16.8345 4.84411 16.9195 5.26164C17.0047 5.67917 17.411 5.94962 17.829 5.86706C18.2506 5.78377 18.524 5.37301 18.4381 4.9517C18.3521 4.53038 17.9397 4.25959 17.5191 4.34824ZM4.20567 8.80281C4.6229 8.73338 4.90497 8.33893 4.83588 7.92153C4.7668 7.50415 4.37267 7.2217 3.95534 7.29046C3.53753 7.35932 3.25476 7.75407 3.32394 8.17193C3.39311 8.58978 3.788 8.87232 4.20567 8.80281ZM21.8034 17.0622C22.2073 16.9836 22.4741 16.5964 22.4041 16.1908C22.3338 15.7852 21.9526 15.5102 21.5456 15.5717C21.2747 15.6127 21.0472 15.7971 20.9507 16.0536C20.8545 16.3102 20.9045 16.5988 21.0814 16.8081C21.2582 17.0174 21.5344 17.1146 21.8034 17.0622ZM13.505 9.31546C13.9149 9.24873 14.1934 8.86209 14.1266 8.45192C14.0598 8.04174 13.6732 7.76342 13.2632 7.83027C12.8532 7.89713 12.5752 8.28369 12.6418 8.69375C12.7086 9.10384 13.095 9.38216 13.505 9.31546Z" fill="var(--fill-0, #061322)"/>
</svg>
