<svg preserveAspectRatio="none" width="100%" height="100%" overflow="visible" style="display: block;" viewBox="0 0 20 20" fill="none" xmlns="http://www.w3.org/2000/svg">
<g id="SVG" clip-path="url(#clip0_7_12)">
<path id="Vector" d="M10.0002 3.95833C11.4752 3.95833 12.7961 4.46668 13.8377 5.45832L16.6919 2.60417C14.9585 0.991667 12.6961 0 10.0002 0C6.0919 0 2.71272 2.24167 1.06689 5.50832L4.3919 8.08748C5.17937 5.71668 7.3919 3.95833 10.0002 3.95833V3.95833" fill="var(--fill-0, #EA4335)"/>
<path id="Vector_2" d="M19.575 10.2292C19.575 9.575 19.5125 8.94167 19.4167 8.33333H10V12.0917H15.3917C15.15 13.325 14.45 14.375 13.4 15.0833L16.6208 17.5833C18.5 15.8417 19.575 13.2667 19.575 10.2292V10.2292" fill="var(--fill-0, #4285F4)"/>
<path id="Vector_3" d="M4.38748 11.9124C4.18748 11.3082 4.07084 10.6666 4.07084 9.99992C4.07084 9.33325 4.18332 8.69158 4.38748 8.08742L1.0625 5.50822C0.383333 6.85822 0 8.38325 0 9.99992C0 11.6166 0.383333 13.1416 1.06667 14.4916L4.38748 11.9124V11.9124" fill="var(--fill-0, #FBBC05)"/>
<path id="Vector_4" d="M10.0003 20.0001C12.7003 20.0001 14.9712 19.1125 16.6212 17.5792L13.4003 15.0792C12.5045 15.6833 11.3503 16.0375 10.0003 16.0375C7.392 16.0375 5.17948 14.2792 4.38782 11.9083L1.06282 14.4875C2.71282 17.7583 6.092 20.0001 10.0003 20.0001V20.0001" fill="var(--fill-0, #34A853)"/>
</g>
<defs>
<clipPath id="clip0_7_12">
<rect width="20" height="20" fill="white"/>
</clipPath>
</defs>
</svg>
