<svg preserveAspectRatio="none" width="100%" height="100%" overflow="visible" style="display: block;" viewBox="0 0 52.8891 60.7323" fill="none" xmlns="http://www.w3.org/2000/svg">
<path id="Vector" d="M17.7384 0.0281137C18.2645 -0.0365269 18.7633 0.00221943 19.247 0.229441C19.8456 0.507161 20.309 1.01206 20.5346 1.63233C20.8354 2.44949 20.7069 3.36305 20.1924 4.06545C19.9629 4.37332 19.669 4.66781 19.5218 5.01968C19.846 6.80539 20.3282 8.52465 20.7727 10.2846L22.5969 17.5787L25.2738 28.2733C25.7172 30.0428 26.1681 31.8182 26.6071 33.5892C26.662 33.7675 26.7355 33.9941 26.8712 34.1258C27.1616 34.4074 27.3703 34.1828 27.5838 33.9821C27.7844 33.4429 27.9368 30.6901 28.0013 29.9428L28.3824 25.5161C28.4708 24.4609 28.6078 23.3096 28.5338 22.2617C27.7653 21.6059 27.2413 21.5941 26.6691 20.5399C26.2346 19.7384 26.1403 18.7957 26.4079 17.924C26.6539 17.1127 27.2547 16.376 28.0032 15.9786C28.8018 15.5582 29.7355 15.4769 30.5943 15.7534C31.4249 16.0194 32.1141 16.6069 32.5091 17.3847C33.0732 18.4852 32.9915 19.9912 32.2154 20.9735C31.7306 21.5872 31.0977 21.9004 30.4195 22.2444C30.1215 23.0428 30.0087 25.2431 29.9361 26.1789L29.5278 31.4761C29.4642 32.3031 29.3253 33.1099 29.3358 33.9401C29.3415 34.4052 29.8473 34.9028 30.1124 34.4179C30.675 33.3886 31.0127 32.1985 31.4135 31.0901L33.3106 25.8809L36.0164 18.4894C36.4128 17.4055 37.0672 15.757 37.3557 14.6114C37.4435 14.2627 36.4219 13.508 36.2079 13.1628C36.0092 12.8426 35.8654 12.5243 35.7651 12.1272C35.5445 11.2253 35.6916 10.2726 36.174 9.47921C36.6363 8.71322 37.3877 8.16571 38.2579 7.96004C39.1659 7.75494 40.1183 7.91967 40.9044 8.41782C41.6534 8.89964 42.1807 9.65928 42.3698 10.5298C42.58 11.4684 42.3956 12.4521 41.8597 13.2507C41.1925 14.2616 40.2826 14.557 39.1616 14.787C38.7785 15.5895 38.3969 16.6887 38.0907 17.5287L36.675 21.4124L32.1051 33.9187C31.9408 34.3667 31.497 35.3844 31.6838 35.788C31.8137 35.9057 31.7397 35.8707 31.9135 35.8961C32.5836 35.5381 33.4864 34.714 34.113 34.2094L37.9842 31.1102L44.5932 25.8153C45.3421 25.214 47.3864 23.6388 47.9237 23.0157C47.8683 22.3747 47.8654 21.7814 48.1377 21.1846C48.4161 20.5849 48.9234 20.1219 49.5462 19.8991C50.8244 19.4304 52.3036 20.0894 52.7487 21.3862C52.9727 22.0542 52.9274 22.7833 52.6222 23.4184C51.9239 24.839 50.4193 25.1423 49.0638 24.4647C48.2557 24.879 47.4074 25.6374 46.6924 26.2198L44.2908 28.1436L33.2547 36.9737C33.0336 37.1477 32.6639 37.4255 32.6295 37.7136C32.9552 38.3807 34.7707 38.2621 35.4466 38.2596C35.9829 38.2625 36.5188 38.2206 37.0485 38.1342C38.7155 37.8645 40.391 37.4219 42.0331 37.0241C42.5991 36.887 43.4044 36.7583 43.9298 36.5856C44.0621 36.5422 44.1867 36.4799 44.2842 36.3784C44.7016 35.9428 44.4131 34.6805 45.4548 33.6488C46.0834 33.0265 46.947 32.6505 47.8353 32.6614C48.7443 32.6721 49.6121 33.0413 50.2498 33.6887C50.8864 34.3424 51.1878 35.1922 51.174 36.0991C51.1558 37.0223 50.7651 37.8988 50.0902 38.5286C49.4722 39.1198 48.6421 39.437 47.7871 39.4084C46.6035 39.3697 45.8508 38.7981 45.077 37.9803C43.1168 38.3817 41.1265 38.9688 39.1592 39.3709C38.5321 39.4991 37.7282 39.7121 37.1101 39.7894C36.0465 39.9225 34.8787 39.8541 33.8078 39.8504C33.5504 39.8495 32.9949 39.8526 32.8301 40.0426C32.3587 40.5868 32.3582 41.1396 31.872 41.7979C31.2257 42.6741 30.7538 42.8882 29.981 43.558C29.3128 44.1375 29.4413 45.2703 29.4504 46.1322L29.4485 54.78C29.4509 56.1756 29.4776 57.6074 29.4394 59.002C29.4327 59.2542 29.3444 59.6001 29.2307 59.8276C29.0396 60.2155 28.7 60.5103 28.2888 60.644C27.3999 60.9235 26.2586 60.5337 26.0277 59.5552C25.7965 58.5749 25.9147 57.4407 25.9179 56.4278L25.9191 49.5147C25.9211 47.928 26.0533 45.6243 25.78 44.0568C25.6855 43.5145 24.6794 42.9092 24.1748 42.6756C23.4265 42.8361 22.6093 43.1247 21.8759 43.3635L18.6635 44.4127L14.6748 45.7117C13.9492 45.9444 12.3246 46.3782 11.7543 46.7733C11.6313 47.0174 11.4943 47.3691 11.3996 47.6285C10.8986 49.0016 9.35208 49.6685 7.99241 49.0632C7.38606 48.7894 6.91545 48.283 6.687 47.6581C6.44465 46.9883 6.47923 46.2492 6.78305 45.6052C7.06948 45.0046 7.58251 44.5431 8.2092 44.3215C9.56013 43.8509 10.2465 44.5388 11.2767 45.041C12.5092 44.7634 13.7002 44.3334 14.9005 43.9369L18.9553 42.6159C19.9518 42.2876 22.4746 41.5748 23.2194 41.1133C23.077 40.3264 22.8606 40.0578 22.0126 40.054C20.3295 40.0465 18.5494 40.2353 16.8817 39.9492C15.5192 39.7153 14.1146 39.2545 12.7912 38.8563L7.78903 37.3576C7.34336 37.2228 5.38966 36.5867 5.05613 36.542C4.05487 36.4079 3.52093 37.7259 1.96423 37.3248C1.29106 37.1447 0.714371 36.7095 0.356339 36.1115C-0.368752 34.8733 0.0456388 33.3368 1.30052 32.6354C1.91403 32.2996 2.63526 32.2198 3.30733 32.4131C5.05603 32.9169 4.87659 34.7217 5.51771 34.9226C8.76159 35.9392 12.0853 36.9905 15.3535 37.9301C15.9678 38.1074 16.5931 38.2437 17.2254 38.3382C18.4463 38.5131 21.527 38.7164 22.6551 38.1417C23.0781 37.9262 23.33 37.0439 23.4268 36.5979C23.1357 36.1565 22.3573 35.6513 21.9084 35.3087L19.4766 33.4492C17.6124 32.0227 15.6792 30.4822 13.7873 29.1108C12.8947 29.6891 11.8195 29.8058 10.9492 29.1053C10.4392 28.6899 10.1151 28.0889 10.0483 27.4344C9.99468 26.8452 10.1806 26.2592 10.564 25.8086C10.9727 25.3225 11.5615 25.0235 12.195 24.9803C13.8864 24.8674 14.5882 26.1805 14.6769 27.6654C15.4102 28.391 16.5392 29.1458 17.3686 29.8049C17.8802 30.2115 19.4133 31.5058 19.9499 31.6743C20.144 31.6411 20.1157 31.6782 20.2127 31.5616C20.2558 31.2725 20.0868 31.038 19.9402 30.7975C19.5379 30.1376 19.1263 29.4836 18.7266 28.8219C18.0478 27.685 17.3578 26.5547 16.6569 25.4313C15.0079 22.8351 14.0024 21.9668 11.3365 20.2489C10.5829 20.802 9.99812 21.1743 9.01449 21.1799C8.1186 21.1864 7.25757 20.8329 6.62462 20.1987C5.97007 19.5352 5.61228 18.6347 5.63291 17.7029C5.64887 16.8028 6.02089 15.9457 6.66746 15.3195C7.29421 14.7127 8.22501 14.3466 9.09588 14.3647C9.97887 14.3835 10.8172 14.7566 11.4224 15.4C12.5337 16.5648 12.3699 17.4523 12.3366 18.835C12.6815 19.2799 13.6657 19.9617 14.1619 20.2862C16.7548 21.9816 18.1066 24.7194 19.6997 27.3247L22.783 32.3645C23.259 33.1507 23.881 34.3514 24.482 35.0678C24.5668 35.1689 24.735 35.1826 24.8683 35.1619C25.0507 35.0671 25.126 34.9181 25.2455 34.7448C24.9709 33.2527 24.3465 31.0963 23.9544 29.5677L21.7617 20.8463L19.1739 10.5061C18.7846 8.95812 18.3962 7.40651 18.0174 5.85365C17.6138 4.50991 16.1383 4.8549 15.7812 3.31939C15.3943 1.65631 16.0166 0.474817 17.7384 0.0281137ZM38.6973 9.60467C37.7764 9.79874 37.1851 10.7 37.3728 11.6222C37.561 12.5445 38.4585 13.1419 39.3818 12.9595C40.3131 12.7755 40.9169 11.8682 40.7272 10.9376C40.5372 10.007 39.6263 9.40884 38.6973 9.60467ZM9.28975 19.4442C10.2113 19.2908 10.8344 18.4195 10.6818 17.4976C10.5292 16.5756 9.65862 15.9517 8.7368 16.1036C7.81392 16.2557 7.18932 17.1277 7.34211 18.0507C7.49491 18.9736 8.36716 19.5977 9.28975 19.4442ZM48.1606 37.6881C49.0528 37.5144 49.6422 36.6591 49.4875 35.7632C49.3322 34.8673 48.4902 34.2598 47.5913 34.3958C46.9928 34.4864 46.4903 34.8936 46.2773 35.4603C46.0648 36.027 46.1751 36.6644 46.5658 37.1267C46.9565 37.589 47.5664 37.8037 48.1606 37.6881ZM29.8306 20.5766C30.7362 20.4292 31.3514 19.5751 31.2038 18.6691C31.0562 17.7631 30.2022 17.1483 29.2966 17.296C28.391 17.4437 27.7768 18.2975 27.9239 19.2033C28.0715 20.1091 28.925 20.7239 29.8306 20.5766Z" fill="var(--fill-0, #061322)"/>
</svg>
